<?xml version="1.0" standalone="no"?>
<svg width="64" height="64" viewBox="0 0 512 384" version="1.1" xmlns="http://www.w3.org/2000/svg">
  <path d="M224 192c-18 0 -32 14 -32 32v160c0 18 14 32 32 32s32 -14 32 -32v-160c0 -18 -14 -32 -32 -32zM347 379c61 -40 101 -109 101 -187c0 -124 -100 -224 -224 -224s-224 100 -224 224c0 78 40 147 101 187v0c5 3 11 5 17 5c18 0 32 -14 32 -32c0 -6 -2 -12 -5 -17 c-2 -3 -4 -6 -7 -8c-1 -1 -3 -2 -4 -3c-8 -6 -16 -12 -23 -19c-30 -30 -47 -70 -47 -113s17 -83 47 -113s70 -47 113 -47s83 17 113 47s47 70 47 113s-17 83 -47 113c-7 7 -15 13 -23 19c-1 1 -3 2 -4 3c-3 2 -5 5 -7 8c-3 5 -5 11 -5 17c0 18 14 32 32 32c6 0 12 -2 17 -5 v0z" transform="matrix(1,0,0,-1,0,384)"/>
</svg>